<?xml version="1.0" encoding="utf-8"?>
<!-- Generator: Adobe Illustrator 17.0.0, SVG Export Plug-In . SVG Version: 6.00 Build 0)  -->
<!DOCTYPE svg PUBLIC "-//W3C//DTD SVG 1.1//EN" "http://www.w3.org/Graphics/SVG/1.1/DTD/svg11.dtd">
<svg version="1.1" id="Layer_1" xmlns="http://www.w3.org/2000/svg" xmlns:xlink="http://www.w3.org/1999/xlink" x="0px" y="0px"
	 width="326.927px" height="30.708px" viewBox="0 0 326.927 30.708" enable-background="new 0 0 326.927 30.708"
	 xml:space="preserve">
<g opacity="0.95">
	<path fill="#FFFFFF" d="M0,29.938V0.77h18.797v2.35H2.755v10.533h14.584v2.35H2.755v13.936H0z"/>
	<path fill="#FFFFFF" d="M25.319,15.395c0-2.133,0.29-4.132,0.871-5.996c0.581-1.864,1.438-3.49,2.573-4.882
		c1.134-1.391,2.538-2.491,4.213-3.302C34.65,0.405,36.582,0,38.77,0c2.269,0,4.26,0.399,5.976,1.195
		c1.715,0.797,3.146,1.891,4.294,3.281c1.148,1.392,2.012,3.025,2.593,4.902c0.581,1.877,0.871,3.883,0.871,6.016
		c0,2.107-0.291,4.085-0.871,5.935c-0.581,1.851-1.438,3.471-2.572,4.861c-1.134,1.392-2.552,2.492-4.254,3.302
		c-1.702,0.811-3.673,1.215-5.915,1.215c-2.242,0-4.213-0.405-5.915-1.215c-1.701-0.81-3.119-1.91-4.253-3.302
		c-1.134-1.391-1.985-3.011-2.552-4.861C25.603,19.48,25.319,17.501,25.319,15.395z M38.932,28.358c1.89,0,3.518-0.357,4.881-1.073
		c1.364-0.715,2.485-1.667,3.363-2.856c0.877-1.188,1.525-2.565,1.944-4.132c0.418-1.566,0.628-3.201,0.628-4.902
		c0-2.025-0.25-3.841-0.75-5.449c-0.5-1.606-1.222-2.978-2.167-4.112c-0.946-1.134-2.094-1.999-3.444-2.593
		c-1.351-0.594-2.863-0.891-4.537-0.891c-1.864,0-3.478,0.364-4.841,1.094c-1.364,0.729-2.485,1.695-3.362,2.896
		c-0.878,1.202-1.526,2.586-1.945,4.152c-0.419,1.567-0.628,3.201-0.628,4.902c0,1.729,0.209,3.376,0.628,4.942
		c0.418,1.567,1.067,2.944,1.945,4.132c0.877,1.189,1.998,2.134,3.362,2.836C35.373,28.008,37.014,28.358,38.932,28.358z"/>
	<path fill="#FFFFFF" d="M64.332,16.691v13.248l-2.755-0.041V0.77h11.425c3.213,0,5.671,0.601,7.373,1.803
		c1.701,1.202,2.552,3.153,2.552,5.854c0,1.837-0.372,3.295-1.114,4.375c-0.743,1.081-1.952,1.999-3.625,2.755
		c0.864,0.298,1.539,0.729,2.025,1.296c0.486,0.567,0.851,1.215,1.094,1.945c0.243,0.729,0.398,1.499,0.466,2.309
		c0.067,0.81,0.115,1.594,0.142,2.35c0.026,1.108,0.074,2.025,0.142,2.755c0.067,0.729,0.148,1.324,0.243,1.783
		c0.094,0.459,0.209,0.817,0.344,1.073c0.135,0.257,0.297,0.453,0.486,0.587v0.243l-3.039,0.041
		c-0.297-0.486-0.506-1.161-0.628-2.025s-0.216-1.769-0.284-2.714s-0.122-1.864-0.162-2.755s-0.115-1.621-0.223-2.188
		c-0.162-0.783-0.425-1.411-0.79-1.884s-0.804-0.831-1.316-1.074c-0.514-0.243-1.088-0.405-1.722-0.486
		c-0.635-0.081-1.291-0.122-1.965-0.122H64.332z M72.921,14.341c1.026,0,1.978-0.107,2.856-0.324
		c0.877-0.216,1.641-0.56,2.289-1.033c0.648-0.472,1.161-1.074,1.539-1.803c0.378-0.729,0.567-1.607,0.567-2.633
		c0-1.08-0.196-1.971-0.587-2.674c-0.392-0.702-0.918-1.256-1.58-1.661c-0.662-0.405-1.418-0.688-2.269-0.851S74,3.12,73.083,3.12
		h-8.75v11.222H72.921z"/>
	<path fill="#FFFFFF" d="M91.15,15.395c0-2.133,0.29-4.132,0.871-5.996c0.581-1.864,1.438-3.49,2.573-4.882
		c1.134-1.391,2.538-2.491,4.213-3.302C100.481,0.405,102.413,0,104.601,0c2.269,0,4.26,0.399,5.976,1.195
		c1.715,0.797,3.146,1.891,4.294,3.281c1.148,1.392,2.012,3.025,2.593,4.902c0.581,1.877,0.871,3.883,0.871,6.016
		c0,2.107-0.291,4.085-0.871,5.935c-0.581,1.851-1.438,3.471-2.572,4.861c-1.134,1.392-2.552,2.492-4.254,3.302
		c-1.702,0.811-3.673,1.215-5.915,1.215c-2.242,0-4.213-0.405-5.915-1.215c-1.701-0.81-3.119-1.91-4.253-3.302
		c-1.134-1.391-1.985-3.011-2.552-4.861C91.434,19.48,91.15,17.501,91.15,15.395z M104.763,28.358c1.89,0,3.518-0.357,4.881-1.073
		c1.364-0.715,2.485-1.667,3.363-2.856c0.877-1.188,1.525-2.565,1.944-4.132c0.418-1.566,0.628-3.201,0.628-4.902
		c0-2.025-0.25-3.841-0.75-5.449c-0.5-1.606-1.222-2.978-2.167-4.112c-0.946-1.134-2.094-1.999-3.444-2.593
		c-1.351-0.594-2.863-0.891-4.537-0.891c-1.864,0-3.478,0.364-4.841,1.094c-1.364,0.729-2.485,1.695-3.362,2.896
		c-0.878,1.202-1.526,2.586-1.945,4.152c-0.419,1.567-0.628,3.201-0.628,4.902c0,1.729,0.209,3.376,0.628,4.942
		c0.418,1.567,1.067,2.944,1.945,4.132c0.877,1.189,1.998,2.134,3.362,2.836C101.204,28.008,102.845,28.358,104.763,28.358z"/>
	<path fill="#FFFFFF" d="M145.72,14.666l-2.633,2.836v12.437h-4.983V4.902h-2.188V0.891h7.171v10.736c0,0.162,0,0.284,0.081,0.284
		c0.04,0,0.121-0.041,0.283-0.203l9.602-10.857h5.104l-8.953,9.885l10.249,19.203h-5.712L145.72,14.666z"/>
	<path fill="#FFFFFF" d="M174.322,30.708c-10.088,0-12.438-7.657-12.438-15.273c0-7.576,2.755-15.232,12.438-15.232
		c10.087,0,12.396,7.657,12.396,15.232C186.719,23.051,183.964,30.708,174.322,30.708z M167.07,15.435
		c0,7.9,2.35,11.343,7.252,11.343c4.861,0,7.211-3.443,7.211-11.343c0-7.859-2.35-11.303-7.211-11.303
		C169.42,4.132,167.07,7.576,167.07,15.435z"/>
	<path fill="#FFFFFF" d="M201.059,16.812h-3.119V30.02h-4.983V4.902h-2.187V0.891h13.571c3.282,0,9.196,0.041,9.196,7.981
		c0,5.51-4.294,7.09-7.009,7.576l5.308,9.602h2.147v3.889h-5.956L201.059,16.812z M208.513,8.75c0-3.565-2.795-3.849-4.578-3.849
		h-5.995v7.9h6.076C204.949,12.802,208.513,12.518,208.513,8.75z"/>
	<path fill="#FFFFFF" d="M218.438,15.597c0-4.254,3.119-15.273,17.663-15.273c0.973,0,2.431,0.162,2.431,0.162v9.115h-4.051V4.699
		c-4.538,0-10.817,3.039-10.817,10.938c0,1.742,0,10.898,10.533,10.898c2.431,0,5.146-0.973,5.146-0.973v4.335
		c0,0-2.269,0.81-5.51,0.81C219.896,30.708,218.438,20.864,218.438,15.597z"/>
	<path fill="#FFFFFF" d="M243.878,29.938C244.81,17.42,257.004,6.36,259.314,5.145c0.081-0.041,0.121-0.081,0.121-0.122
		c0-0.081-0.162-0.122-0.283-0.122h-12.6V0.891h19.729c0,0,0.04,2.026,0.04,3.363c0,0.688,0,1.175-0.04,1.215
		c-2.836,1.458-14.544,11.384-16.002,20.499h12.113v-6.644h4.172v10.614H243.878z"/>
	<path fill="#FFFFFF" d="M271.02,29.938l9.885-25.037h-2.188V0.891h9.318l9.925,25.037h2.188v4.011h-6.319l-2.836-7.657h-11.546
		l-2.836,7.657H271.02z M289.535,18.23l-4.254-11.465c-0.041-0.122-0.081-0.203-0.122-0.203c-0.04,0-0.081,0.081-0.121,0.203
		l-4.133,11.465H289.535z"/>
	<path fill="#FFFFFF" d="M313.194,14.666l-2.633,2.836v12.437h-4.983V4.902h-2.188V0.891h7.171v10.736c0,0.162,0,0.284,0.081,0.284
		c0.04,0,0.121-0.041,0.283-0.203l9.602-10.857h5.104l-8.953,9.885l10.249,19.203h-5.712L313.194,14.666z"/>
</g>
</svg>
