<?xml version="1.0" encoding="utf-8"?>
<!-- Generator: Adobe Illustrator 17.0.0, SVG Export Plug-In . SVG Version: 6.00 Build 0)  -->
<!DOCTYPE svg PUBLIC "-//W3C//DTD SVG 1.1//EN" "http://www.w3.org/Graphics/SVG/1.1/DTD/svg11.dtd">
<svg version="1.1" id="Layer_1" xmlns="http://www.w3.org/2000/svg" xmlns:xlink="http://www.w3.org/1999/xlink" x="0px" y="0px"
	 width="137.758px" height="60.35px" viewBox="0 0 137.758 60.35" enable-background="new 0 0 137.758 60.35" xml:space="preserve">
<g>
	<path fill="#202020" d="M3.666,21.621c2.125-2.172,4.83-3.258,8.112-3.258c4.392,0,7.604,1.456,9.635,4.368
		c1.122,1.635,1.724,3.276,1.807,4.923h-5.514c-0.351-1.265-0.801-2.22-1.351-2.864c-0.982-1.146-2.438-1.719-4.367-1.719
		c-1.965,0-3.514,0.809-4.648,2.426c-1.134,1.617-1.701,3.906-1.701,6.866c0,2.96,0.598,5.177,1.795,6.651
		c1.197,1.474,2.718,2.211,4.562,2.211c1.891,0,3.333-0.632,4.326-1.898c0.549-0.68,1.004-1.701,1.366-3.061h5.478
		c-0.473,2.877-1.68,5.216-3.622,7.018c-1.943,1.802-4.431,2.703-7.466,2.703c-3.755,0-6.707-1.217-8.856-3.652
		C1.075,39.888,0,36.534,0,32.273C0,27.667,1.222,24.116,3.666,21.621z"/>
	<path fill="#202020" d="M35.17,18.864h6.239l9.336,26.389h-5.98l-1.741-5.425h-9.718l-1.789,5.425H25.75L35.17,18.864z
		 M34.807,35.281h6.758l-3.333-10.384L34.807,35.281z"/>
	<path fill="#202020" d="M73.011,23.653H59.047v5.604h12.819v4.583H59.047v6.785h14.609v4.744H53.658V18.981h19.353V23.653z"/>
	<path fill="#E22F2C" d="M85.584,34.493v-4.673h7.34v-7.34h4.708v7.34h7.34v4.673h-7.34v7.376h-4.708v-7.376H85.584z"/>
	<path fill="#202020" d="M137.114,23.653H123.15v5.604h12.819v4.583H123.15v6.785h14.609v4.744h-19.998V18.981h19.353V23.653z"/>
</g>
</svg>
